<svg xmlns="http://www.w3.org/2000/svg" width="436.932" height="705.72" viewBox="0 0 436.932 705.72">
  <g id="_4466028" data-name="4466028" transform="translate(-0.031 -24.286)">
    <g id="OBJECTS" transform="translate(0.031 0)">
      <circle id="Ellipse_390" data-name="Ellipse 390" cx="6.647" cy="6.647" r="6.647" transform="translate(417.334 301.812)" fill="#541388"/>
      <path id="Path_6300" data-name="Path 6300" d="M389.132,145.92a1.669,1.669,0,1,1-1.642,1.668,1.669,1.669,0,0,1,1.642-1.668Z" transform="translate(17.185 133.54)" fill="#8dfbf4"/>
      <circle id="Ellipse_391" data-name="Ellipse 391" cx="11.388" cy="11.388" r="11.388" transform="matrix(0.16, -0.987, 0.987, 0.16, 356.677, 296.96)" fill="#f8e133"/>
      <path id="Path_6301" data-name="Path 6301" d="M347.588,282.7A11.388,11.388,0,1,1,336.2,294.088,11.388,11.388,0,0,1,347.588,282.7Z" transform="translate(-67.362 359.009)" fill="#541388"/>
      <path id="Path_6302" data-name="Path 6302" d="M79.084,51.159,58.4,14.24l14.381-.98Z" transform="translate(96.186 21.858)" fill="#541388"/>
      <path id="Path_6303" data-name="Path 6303" d="M79.414,50.5,58.73,13.553,73.111,12.6Z" transform="translate(96.73 20.77)" fill="#337e81"/>
      <path id="Path_6304" data-name="Path 6304" d="M83.945,235.06l-8.4,48.254L91.6,278.838Z" transform="translate(124.456 387.474)" fill="#541388"/>
      <path id="Path_6305" data-name="Path 6305" d="M84.565,235.66l-8.4,48.254,16.049-4.476Z" transform="translate(125.478 388.463)" fill="#f8e133"/>
      <path id="Path_6306" data-name="Path 6306" d="M60.257,223.65,38.46,270l-11.07-13.48Z" transform="translate(45.069 368.666)" fill="#541388"/>
      <path id="Path_6307" data-name="Path 6307" d="M59.367,223.79l-21.8,46.347L26.5,256.683Z" transform="translate(43.602 368.897)" fill="#eb591c"/>
      <path id="Path_6308" data-name="Path 6308" d="M142.38,170.15,190.1,188.742l-12.712,11.971Z" transform="translate(234.619 280.476)" fill="#541388"/>
      <path id="Path_6309" data-name="Path 6309" d="M142.58,171.03,190.3,189.622l-12.686,11.971Z" transform="translate(234.948 281.927)" fill="#d40078"/>
      <g id="Group_768" data-name="Group 768" transform="translate(49.629 79.399)">
        <path id="Path_6310" data-name="Path 6310" d="M260.236,71.05a6.833,6.833,0,1,1-6.806,6.833,6.833,6.833,0,0,1,6.806-6.833Z" transform="translate(-253.43 -69.275)" fill="#541388"/>
        <path id="Path_6311" data-name="Path 6311" d="M260.2,70.38a6.806,6.806,0,1,1-4.826,2.059A6.833,6.833,0,0,1,260.2,70.38Z" transform="translate(-253.398 -70.38)" fill="#ee8122"/>
      </g>
      <circle id="Ellipse_392" data-name="Ellipse 392" cx="3.152" cy="3.152" r="3.152" transform="translate(99.896 24.286)" fill="#541388"/>
      <circle id="Ellipse_393" data-name="Ellipse 393" cx="7.601" cy="7.601" r="7.601" transform="translate(116.343 56.543)" fill="#d40078"/>
      <path id="Path_6312" data-name="Path 6312" d="M240.306,97.15a2.741,2.741,0,1,1-2.741,2.741,2.741,2.741,0,0,1,2.741-2.741Z" transform="translate(-229.953 53.147)" fill="#f8e133"/>
      <path id="Path_6345" data-name="Path 6345" d="M2.41,0A2.41,2.41,0,1,1,0,2.41,2.41,2.41,0,0,1,2.41,0Z" transform="translate(50.425 402.31) rotate(-68.71)" fill="#f8e133"/>
      <circle id="Ellipse_395" data-name="Ellipse 395" cx="6.012" cy="6.012" r="6.012" transform="translate(373.185 136.207)" fill="#337e81"/>
      <path id="Path_6313" data-name="Path 6313" d="M342.666,68.478a2.331,2.331,0,1,1-2.082,2.317,2.33,2.33,0,0,1,2.082-2.317Z" transform="translate(-60.136 5.862)" fill="#337e81"/>
      <circle id="Ellipse_396" data-name="Ellipse 396" cx="9.163" cy="9.163" r="9.163" transform="translate(334.305 584.777) rotate(-76.76)" fill="#337e81"/>
      <path id="Path_6314" data-name="Path 6314" d="M368.383,244.73a1.933,1.933,0,1,1-1.933,1.933,1.933,1.933,0,0,1,1.933-1.933Z" transform="translate(-17.498 296.419)" fill="#8dfbf4"/>
      <circle id="Ellipse_397" data-name="Ellipse 397" cx="2.41" cy="2.41" r="2.41" transform="translate(26.621 419.292) rotate(-67.92)" fill="#541388"/>
      <path id="Path_6315" data-name="Path 6315" d="M357.917,74.46A3.337,3.337,0,1,1,354.58,77.8,3.337,3.337,0,0,1,357.917,74.46Z" transform="translate(-37.064 15.745)" fill="#541388"/>
      <g id="Group_769" data-name="Group 769" transform="translate(69.413 709.799)">
        <circle id="Ellipse_398" data-name="Ellipse 398" cx="7.866" cy="7.866" r="7.866" transform="translate(0.079 4.476)" fill="#541388"/>
        <path id="Path_6316" data-name="Path 6316" d="M268.845,308.41a7.945,7.945,0,1,1-7.945,7.945A7.945,7.945,0,0,1,268.845,308.41Z" transform="translate(-260.9 -308.41)" fill="#f8e133"/>
      </g>
      <path id="Path_6317" data-name="Path 6317" d="M388.253,176.83a6.806,6.806,0,1,1-4.83,1.984A6.806,6.806,0,0,1,388.253,176.83Z" transform="translate(7.179 184.492)" fill="#541388"/>
      <path id="Path_6318" data-name="Path 6318" d="M235.51,236.758a.98.98,0,1,1-.819.967A.98.98,0,0,1,235.51,236.758Z" transform="translate(-234.691 283.256)" fill="#8dfbf4"/>
      <circle id="Ellipse_399" data-name="Ellipse 399" cx="2.066" cy="2.066" r="2.066" transform="translate(144.734 658.34)" fill="#541388"/>
      <circle id="Ellipse_400" data-name="Ellipse 400" cx="2.066" cy="2.066" r="2.066" transform="translate(189.651 136.605)" fill="#541388"/>
      <circle id="Ellipse_401" data-name="Ellipse 401" cx="2.225" cy="2.225" r="2.225" transform="translate(212.639 51.538)" fill="#eb591c"/>
      <circle id="Ellipse_402" data-name="Ellipse 402" cx="2.225" cy="2.225" r="2.225" transform="translate(111.893 182.263)" fill="#8dfbf4"/>
      <path id="Path_6319" data-name="Path 6319" d="M400.318,74.83a2.648,2.648,0,1,1-2.648,2.648A2.648,2.648,0,0,1,400.318,74.83Z" transform="translate(33.965 16.355)" fill="#f8e133"/>
      <g id="Group_770" data-name="Group 770" transform="translate(43.035 462.226)">
        <path id="Path_6320" data-name="Path 6320" d="M43.85,199.651l-27.57.318L32.223,175.63Z" transform="translate(-16.28 -172.717)" fill="#eb591c"/>
        <path id="Path_6321" data-name="Path 6321" d="M44.05,198.525l-27.57.318L32.45,174.53Z" transform="translate(-15.95 -174.53)" fill="#541388"/>
      </g>
      <g id="Group_771" data-name="Group 771" transform="translate(60.514 138.67)">
        <path id="Path_6322" data-name="Path 6322" d="M22.88,53.4l26.961,5.747L28.918,79.381Z" transform="translate(-22.88 -50.646)" fill="#f8e133"/>
        <path id="Path_6323" data-name="Path 6323" d="M23.32,52.36l26.961,5.747-20.9,20.234Z" transform="translate(-22.155 -52.36)" fill="#541388"/>
      </g>
      <g id="Group_772" data-name="Group 772" transform="translate(34.375 362.54)">
        <path id="Path_6324" data-name="Path 6324" d="M21.776,148.532l-8.766-8.978,13-2.384Z" transform="translate(-13.01 -136.428)" fill="#541388"/>
        <path id="Path_6325" data-name="Path 6325" d="M22.206,148.252l-8.766-8.978,13-2.384Z" transform="translate(-12.301 -136.89)" fill="#337e81"/>
      </g>
      <path id="Path_6326" data-name="Path 6326" d="M108.83,30.41l.5-12.5,10.673,7.813Z" transform="translate(179.315 29.523)" fill="#541388"/>
      <path id="Path_6327" data-name="Path 6327" d="M109.81,30.53l.5-12.5,10.647,7.813Z" transform="translate(180.93 29.721)" fill="#f8e133"/>
      <g id="Group_773" data-name="Group 773" transform="translate(312.007 607.2)">
        <path id="Path_6328" data-name="Path 6328" d="M154.15,255.01l-5.721,2.092,21.214,17.268-6.409,1.642,24.418,21.134-38.031-23.624,7.018-2.357-23.306-16.738,7.76-2.41L117.84,229.4Z" transform="translate(-117.84 -229.056)" fill="#541388"/>
        <path id="Path_6329" data-name="Path 6329" d="M156.06,254.88l-5.721,2.092,21.214,17.268-6.383,1.642,24.392,21.134-38.031-23.6,7.018-2.384L135.27,254.3l7.733-2.41L119.75,229.27Z" transform="translate(-114.692 -229.27)" fill="#eb591c"/>
      </g>
      <g id="Group_774" data-name="Group 774" transform="translate(107.682 706.939)">
        <path id="Path_6330" data-name="Path 6330" d="M277.548,307.81a2.225,2.225,0,0,1,2.2,2.225,2.2,2.2,0,1,1-4.4,0,2.225,2.225,0,0,1,2.2-2.225Z" transform="translate(-275.35 -306.539)" fill="#541388"/>
        <path id="Path_6331" data-name="Path 6331" d="M277.548,307.33a2.225,2.225,0,0,1,2.2,2.225,2.2,2.2,0,1,1-4.4,0,2.225,2.225,0,0,1,2.2-2.225Z" transform="translate(-275.35 -307.33)" fill="#f8e133"/>
      </g>
      <g id="Group_775" data-name="Group 775" transform="translate(28.548 263.384)">
        <path id="Path_6332" data-name="Path 6332" d="M65.235,117.168,19.1,99.45l-8.29,2.331Z" transform="translate(-10.81 -99.45)" fill="#541388"/>
        <path id="Path_6333" data-name="Path 6333" d="M67.025,118.368,20.863,100.65,12.6,102.981Z" transform="translate(-7.859 -97.472)" fill="#d40078"/>
      </g>
      <path id="Path_6334" data-name="Path 6334" d="M144.21,209.93l22.273,13.295,4.5-.45Z" transform="translate(237.635 346.05)" fill="#541388"/>
      <path id="Path_6335" data-name="Path 6335" d="M143.4,209.15l22.273,13.3,4.476-.45Z" transform="translate(236.3 344.764)" fill="#eb591c"/>
      <path id="Path_6336" data-name="Path 6336" d="M252.2,259.78a3.364,3.364,0,1,1,2.4-.976,3.39,3.39,0,0,1-2.4.976Z" transform="translate(-211.416 310.051)" fill="#f8e133"/>
      <path id="Path_6337" data-name="Path 6337" d="M258.071,270.68a2.3,2.3,0,1,1,2.2-1.069,2.3,2.3,0,0,1-2.2,1.069Z" transform="translate(-199.543 331.62)" fill="#ee8122"/>
      <path id="Path_6338" data-name="Path 6338" d="M273.434,289.868a2.3,2.3,0,1,1,2.3-2.3,2.278,2.278,0,0,1-2.3,2.3Z" transform="translate(-174.624 363.228)" fill="#ee8122"/>
      <circle id="Ellipse_403" data-name="Ellipse 403" cx="3.787" cy="3.787" r="3.787" transform="translate(21.212 315.478)" fill="#541388"/>
      <path id="Path_6339" data-name="Path 6339" d="M391.2,125.833a3.416,3.416,0,1,1,3.416-3.416A3.417,3.417,0,0,1,391.2,125.833Z" transform="translate(17.663 89.165)" fill="#8dfbf4"/>
      <path id="Path_6340" data-name="Path 6340" d="M323.8,309.537a2.648,2.648,0,1,1,2.648-2.648A2.648,2.648,0,0,1,323.8,309.537Z" transform="translate(-92.171 394.515)" fill="#8dfbf4"/>
      <path id="Path_6341" data-name="Path 6341" d="M388.253,175.35a6.833,6.833,0,1,1-6.833,6.833,6.833,6.833,0,0,1,6.833-6.833Z" transform="translate(7.179 182.052)" fill="#eb591c"/>
      <path id="Path_6342" data-name="Path 6342" d="M163.635,58.121l-7.654-4.158L192.423,31.9,172.162,20.09l-32.5,36.2,9.773,4.343L125.63,80.818Z" transform="translate(207.008 33.116)" fill="#541388"/>
      <path id="Path_6343" data-name="Path 6343" d="M163.4,60.731,155.777,56.6l36.416-22.061L171.932,22.7l-32.5,36.2,9.773,4.37L125.4,83.454Z" transform="translate(206.629 37.419)" fill="#337e81"/>
      <path id="Path_6344" data-name="Path 6344" d="M357.917,73.63a3.337,3.337,0,1,1-3.337,3.311,3.337,3.337,0,0,1,3.337-3.311Z" transform="translate(-37.064 14.376)" fill="#d40078"/>
    </g>
  </g>
</svg>
